<?xml version="1.0" standalone="no"?>
<!DOCTYPE svg PUBLIC "-//W3C//DTD SVG 20010904//EN"
 "http://www.w3.org/TR/2001/REC-SVG-20010904/DTD/svg10.dtd">
<svg version="1.0" xmlns="http://www.w3.org/2000/svg"
 width="260.000000pt" height="260.000000pt" viewBox="0 0 260.000000 260.000000"
 preserveAspectRatio="xMidYMid meet">
<metadata>
Created by potrace 1.11, written by Peter Selinger 2001-2013
</metadata>
<g transform="translate(0.000000,260.000000) scale(0.100000,-0.100000)"
fill="#000000" stroke="none">
<path d="M643 2239 c-157 -15 -310 -149 -406 -358 -17 -36 -31 -68 -32 -71 0
-3 -10 -36 -22 -75 -21 -70 -28 -100 -38 -165 -3 -19 -8 -46 -10 -60 -8 -36
-9 -345 -2 -356 3 -5 8 -30 12 -54 12 -86 16 -102 45 -193 72 -226 192 -383
347 -455 48 -22 72 -26 138 -26 69 0 89 4 146 32 79 38 182 134 228 213 67
115 120 254 146 384 3 17 8 41 11 55 10 50 12 347 3 405 -5 33 -11 75 -14 92
-7 65 -45 180 -94 287 -104 227 -284 363 -458 345z"/>
<path d="M1873 2239 c-218 -29 -429 -310 -480 -639 -3 -19 -9 -55 -13 -80 -13
-67 -9 -334 5 -415 7 -38 20 -101 30 -140 82 -321 296 -550 505 -541 84 4 101
9 168 47 164 92 309 337 346 583 4 21 8 42 11 45 10 17 20 135 19 241 0 103
-4 150 -19 230 -3 14 -7 35 -10 48 -18 96 -67 239 -106 308 -40 72 -44 79 -50
84 -3 3 -10 14 -16 24 -6 10 -36 45 -67 76 -93 94 -217 143 -323 129z"/>
</g>
</svg>
